<?xml version="1.0" encoding="UTF-8"?>
<svg width="700pt" height="700pt" version="1.1" viewBox="0 0 700 700" xmlns="http://www.w3.org/2000/svg">
 <g>
  <path d="m480.12 245.57c-1.625 1.0625-3.25 2.0156-4.8711 2.9102l11.48 17.75 9.6875-6.2734-11.48-17.75c-1.4023 1.0664-2.9141 2.1289-4.8164 3.3633z"/>
  <path d="m373.27 200.61c5.543 8.625 12.711 15.566 21.391 20.664 21.559 12.77 47.938 12.262 68.879-1.3438 14.617-9.4648 24.695-24.078 28.391-41.047 3.6406-17.023 0.39062-34.496-9.0703-49.168-2.9102-4.3672-6.3281-8.457-10.305-12.207-3.5273-3.25-7.3359-6.1055-11.199-8.3984-7.8398-4.6484-16.855-7.6172-26.152-8.6797-2.5195-0.28125-4.9844-0.39062-7.5039-0.39062-11.816 0-23.238 3.1914-33.375 9.4648l-2.0156 1.2305c-7.7852 5.0391-14.336 11.648-19.434 19.656l-1.0078 1.6797c-5.0391 8.3984-8.1211 18.145-8.8477 28.055-0.78516 9.6875 0.67188 19.602 4.2578 28.672 1.5117 4.082 3.5273 8.0586 5.9922 11.812zm31.191-87.082c1.7344-0.78516 3.5273-1.3984 5.375-2.0156 2.9688-0.89453 6.1055 0.78516 7 3.75 0.89453 2.9688-0.78516 6.0469-3.6953 7-1.5117 0.44922-2.9102 0.95313-4.3125 1.5664-0.72656 0.28125-1.457 0.44922-2.1836 0.44922-2.1836 0-4.2578-1.2891-5.1523-3.418-1.2305-2.8516 0.11328-6.1562 2.9688-7.332zm-16.242 10.473c2.2969-2.1289 5.8242-1.9609 7.9531 0.28125 2.0703 2.2969 1.9609 5.8242-0.33594 7.9531-9.1836 8.457-14.504 20.551-14.504 33.098 0 24.863 20.215 45.082 44.969 45.082 3.1367 0 5.6016 2.4648 5.6016 5.6016 0 3.0781-2.4648 5.6016-5.6016 5.6016-30.969 0-56.168-25.258-56.168-56.281 0-15.688 6.6055-30.75 18.086-41.336z"/>
  <path d="m531.52 269.15-0.33594-0.16797 0.22266 0.28125z"/>
  <path d="m357.03 211.08c8.9609 13.777 21.449 24.527 36.23 31.191 18.703 8.457 39.762 9.8008 59.305 3.8633 7.5039-2.2383 14.672-5.543 21.449-9.9688 2.2969-1.457 3.9766-2.6328 5.4883-3.8633 21.559-16.465 33.039-41.719 33.039-67.312 0-15.793-4.3672-31.695-13.496-45.695-3.5859-5.6562-8.0625-10.922-13.215-15.793-13.047-12.32-30.297-20.273-48.441-22.289-18.762-2.0703-37.184 1.9609-53.199 11.816-0.61719 0.33594-1.1758 0.67188-1.6797 1.0078-0.16797 0.11328-0.33594 0.28125-0.55859 0.39062-10.246 6.6094-18.816 15.289-25.367 25.648-0.50391 0.72656-0.83984 1.2891-1.1211 1.793-6.7188 11.254-10.695 23.855-11.703 36.734-1.0078 12.77 0.83984 25.254 5.4336 37.016 2.125 5.5469 4.7578 10.754 7.8359 15.461zm-5.1523-51.859c0.83984-11.535 4.4805-22.961 10.414-33.039l1.1211-1.7344c5.9375-9.4648 13.664-17.25 22.961-23.184l2.1289-1.2891c14.391-8.9023 30.969-12.602 47.938-10.641 10.863 1.1758 21.449 4.7031 30.633 10.137 4.5352 2.6875 8.9609 5.9922 13.105 9.8555 4.6484 4.3672 8.6797 9.1289 12.039 14.281 8.1211 12.543 12.375 26.879 12.375 41.441 0 5.375-0.55859 10.809-1.7344 16.184-4.3125 19.938-16.129 37.016-33.266 48.105-12.656 8.2305-27.105 12.375-41.551 12.375-13.441 0-26.938-3.5859-39.09-10.809-10.191-5.9922-18.594-14.168-25.09-24.191-2.8555-4.4258-5.2656-9.1289-7.0547-13.945-4.1445-10.586-5.8242-22.176-4.9297-33.547z"/>
  <path d="m451.72 353.04c-0.11328 0.054688-0.22266 0.054688-0.33594 0.054688-0.50391 0.16797-1.0078 0.28125-1.5664 0.28125-0.39062 0-0.72656-0.11328-1.1211-0.16797-0.28125-0.054687-0.50391-0.054687-0.78516-0.16797-0.61719-0.22266-1.1758-0.50391-1.6797-0.95312l-45.191-37.801v157.81l71.344-76.27c5.9375-6.2148 9.1836-14.449 9.1836-23.184v-45.078l-28.113 24.473c-0.5 0.44531-1.1172 0.78125-1.7344 1.0039z"/>
  <path d="m342.64 357.24 40.879-49.113h-194.1l-49.949 39.59 192.47 22.402z"/>
  <path d="m518.92 270.66c-1.457-2.2969-3.6953-3.8086-6.3281-4.3672-2.5781-0.55859-5.2656-0.054688-7.5039 1.3984l-14.281 9.1836c-0.16797 0.16797-0.39062 0.33594-0.55859 0.44922-2.2422 1.457-3.8086 3.6406-4.3672 6.2734-0.5625 2.5742-0.054687 5.207 1.457 7.4492l41.609 64.23 31.586-20.496z"/>
  <path d="m474.96 281.25c0.55859-2.7422 1.6797-5.3203 3.2461-7.5586l-12.938-19.992c-0.054688-0.054687-0.054688-0.16797-0.11328-0.28125-2.6875 1.1211-5.375 2.1289-8.1211 3.0234l-52.863 45.863 45.527 38.137 33.77-29.398c0.054688-0.054687 0.11328-0.054687 0.11328-0.11328l2.1289-1.793-7.7852-11.984c-3.0781-4.7031-4.1406-10.359-2.9648-15.902z"/>
  <path d="m336.7 381.04s-0.054688 0.054688-0.11328 0.054688c-0.67188 0.33594-1.3438 0.44922-2.1289 0.50391h-0.72656-0.054688l-129.08-14.168v61.266c0 5.8789 4.1445 11.031 9.9102 12.152l175.34 38.473v-161.34l-51.238 61.602c-0.5625 0.67188-1.1758 1.1172-1.9062 1.4531z"/>
  <path d="m428.04 260.97c-12.992 0-25.984-2.7422-38.082-8.0078h-108.97l-63.336 43.961h175.67l41.719-36.23c-2.3516 0.16406-4.6484 0.27734-7 0.27734z"/>
 </g>
</svg>
